Coordinates
version=1
nRows=26
nColumns=30
inDegrees=yes

Units are S.I. units (second, meters, Newtons, ...)
Angles are in degrees.

endheader
time	floatyaw	floatroll	floatpitch	floatx	floaty	floatz	pro_sup_l	deviation_l	flexion_l	cmc_flexion_l	cmc_abduction_l	mp_flexion_l	ip_flexion_l	2mcp_flexion_l	2mcp_abduction_l	2pm_flexion_l	2md_flexion_l	3mcp_flexion_l	3mcp_abduction_l	3pm_flexion_l	3md_flexion_l	4mcp_flexion_l	4mcp_abduction_l	4pm_flexion_l	4md_flexion_l	5mcp_flexion_l	5mcp_abduction_l	5pm_flexion_l	5md_flexion_l
0.005000	-2.172711	-3.701800	97.553456	0.062810	-0.126610	0.038070	79.714354	17.896744	1.405759	-2.649220	38.504925	-24.495945	-40.618039	58.617541	9.370268	67.641921	44.849597	62.695992	6.444470	70.025079	46.721072	63.591242	-4.921900	79.823605	52.059470	49.756357	-11.218595	78.042316	49.766535
0.015000	-2.172711	-3.701800	97.553456	0.062922	-0.124758	0.037567	78.878185	18.272796	1.162991	-3.179600	39.139476	-25.051043	-41.575027	59.501930	8.978926	66.468611	44.662645	64.336854	6.365503	70.668083	47.389536	65.838491	-5.031271	80.847113	53.141246	50.882529	-10.418068	79.452693	49.702964
0.025000	-2.172711	-3.701800	97.553456	0.062779	-0.122195	0.036966	78.415687	18.744534	0.730946	-3.535478	39.720667	-25.417894	-42.301771	59.711322	8.525577	65.409200	44.394453	65.031705	6.316508	70.829731	47.925354	66.866070	-5.090773	81.482504	54.026106	51.713815	-9.853465	79.764067	49.176406
0.035000	-2.172711	-3.701800	97.553456	0.062597	-0.119176	0.036350	78.190307	19.311967	0.246337	-3.894383	40.242582	-25.560476	-42.713732	59.704446	8.108688	64.445304	44.049072	65.171845	6.301366	70.629466	48.447432	67.153275	-5.109752	81.732645	54.826149	52.418266	-9.531944	79.298535	48.510743
0.045000	-2.172711	-3.701800	97.553456	0.062497	-0.116038	0.035784	78.119525	19.934100	-0.158918	-4.295733	40.707858	-25.462867	-42.805066	59.772847	7.770745	63.476536	43.621815	65.104772	6.311993	70.137799	48.973619	67.139487	-5.106287	81.587324	55.579914	53.010470	-9.385845	78.398427	47.964377
0.055000	-2.172711	-3.701800	97.553456	0.062516	-0.113163	0.035295	78.143822	20.550435	-0.400148	-4.688621	41.112030	-25.150491	-42.640843	60.016939	7.512083	62.428716	43.142738	65.057598	6.338063	69.438802	49.453493	67.120752	-5.098096	81.112598	56.259461	53.430851	-9.332174	77.379139	47.682710
0.065000	-2.172711	-3.701800	97.553456	0.062619	-0.110896	0.034883	78.198697	21.099965	-0.463078	-5.000319	41.443124	-24.700830	-42.338964	60.388842	7.312987	61.323461	42.689809	65.113863	6.371337	68.670293	49.819555	67.214917	-5.096135	80.482631	56.806807	53.627609	-9.310688	76.506257	47.691026
0.075000	-2.172711	-3.701800	97.553456	0.062725	-0.109442	0.034533	78.214219	21.533940	-0.393616	-5.185821	41.691339	-24.226280	-42.036331	60.764155	7.151719	60.275017	42.360556	65.237525	6.405489	68.005416	50.028715	67.389048	-5.103135	79.928188	57.175026	53.596523	-9.292703	75.970417	47.919139
0.085000	-2.172711	-3.701800	97.553456	0.062743	-0.108811	0.034233	78.136304	21.822835	-0.263915	-5.242982	41.858416	-23.832525	-41.842820	61.013817	7.013348	59.425250	42.222232	65.329239	6.434870	67.587096	50.079940	67.528388	-5.115987	79.635026	57.354679	53.374862	-9.270860	75.854715	48.246235
0.095000	-2.172711	-3.701800	97.553456	0.062608	-0.108832	0.033982	77.946866	21.958380	-0.137194	-5.200607	41.959502	-23.577343	-41.803373	61.056962	6.890582	58.864710	42.276170	65.291842	6.454632	67.464412	50.008561	67.516454	-5.129381	79.660818	57.377259	53.015065	-9.245164	76.117628	48.550957
0.105000	-2.172711	-3.701800	97.553456	0.062304	-0.109231	0.033793	77.665662	21.950995	-0.048727	-5.096339	42.017046	-23.456595	-41.891375	60.882537	6.780728	58.591233	42.459738	65.078100	6.462092	67.578027	49.867015	67.293794	-5.138720	79.924737	57.298950	52.564078	-9.214919	76.617659	48.750669
0.115000	-2.172711	-3.701800	97.553456	0.061862	-0.109752	0.033685	77.333758	21.823803	-0.005991	-4.958570	42.051255	-23.424272	-42.038050	60.537462	6.682626	58.526475	42.681247	64.702813	6.457697	67.804351	49.704411	66.874853	-5.141610	80.272240	57.176603	52.055792	-9.177794	77.179841	48.819436
0.125000	-2.172711	-3.701800	97.553456	0.061341	-0.110225	0.033668	76.990939	21.605931	0.000357	-4.799459	42.072557	-23.429850	-42.178245	60.093040	6.595281	58.569969	42.862805	64.221729	6.444556	68.027221	49.553912	66.325472	-5.138131	80.568842	57.049355	51.510527	-9.132264	77.672296	48.783293
0.135000	-2.172711	-3.701800	97.553456	0.060799	-0.110597	0.033736	76.660480	21.327993	-0.014909	-4.619190	42.079324	-23.447450	-42.283463	59.610698	6.517785	58.649899	42.966267	63.697296	6.426896	68.191652	49.430183	65.723274	-5.130239	80.764179	56.933110	50.936605	-9.079501	78.050791	48.698655
0.145000	-2.172711	-3.701800	97.553456	0.060278	-0.110895	0.033863	76.347671	21.020565	-0.037852	-4.416277	42.061172	-23.481469	-42.365027	59.125028	6.449386	58.740892	42.993234	63.173817	6.408550	68.312035	49.333691	65.126528	-5.120683	80.894859	56.826294	50.335029	-9.023205	78.349529	48.623991
0.155000	-2.172711	-3.701800	97.553456	0.059799	-0.111171	0.034012	76.049478	20.713793	-0.057016	-4.196489	42.005785	-23.551327	-42.452333	58.648360	6.389227	58.847747	42.967350	62.672590	6.392202	68.439496	49.257150	64.564570	-5.111882	81.037257	56.720147	49.708414	-8.968104	78.631468	48.596389
0.165000	-2.172711	-3.701800	97.553456	0.059366	-0.111457	0.034141	75.766636	20.435337	-0.063558	-3.974933	41.905951	-23.670252	-42.565694	58.186956	6.336209	58.976150	42.914699	62.202199	6.379265	68.616408	49.191196	64.046163	-5.105245	81.249034	56.607454	49.070143	-8.918392	78.934831	48.621861
0.175000	-2.172711	-3.701800	97.553456	0.058982	-0.111744	0.034223	75.509528	20.205775	-0.052048	-3.770892	41.763622	-23.833089	-42.701666	57.753919	6.289453	59.113927	42.854000	61.771144	6.369997	68.847581	49.128789	63.573327	-5.101132	81.536022	56.487243	48.446921	-8.876749	79.249120	48.681308
0.185000	-2.172711	-3.701800	97.553456	0.058645	-0.111999	0.034250	75.294634	20.033715	-0.021806	-3.599723	41.589540	-24.019062	-42.836518	57.369779	6.249053	59.233261	42.798226	61.392618	6.363694	69.101241	49.068747	63.150074	-5.099300	81.857497	56.365874	47.871598	-8.843963	79.529951	48.746304
0.195000	-2.172711	-3.701800	97.553456	0.058356	-0.112188	0.034237	75.135127	19.914173	0.022665	-3.467251	41.399278	-24.204693	-42.941628	57.052419	6.216364	59.308258	42.760720	61.079858	6.359115	69.332580	49.017791	62.783083	-5.099388	82.157503	56.255448	47.370273	-8.819037	79.735903	48.794955
0.205000	-2.172711	-3.701800	97.553456	0.058110	-0.112303	0.034207	75.032638	19.831922	0.072978	-3.369321	41.208127	-24.376535	-42.999910	56.805568	6.193362	59.333387	42.757013	60.837773	6.355094	69.511299	48.989149	62.477521	-5.101109	82.398102	56.170040	46.951996	-8.799735	79.859110	48.820139
0.215000	-2.172711	-3.701800	97.553456	0.057902	-0.112363	0.034186	74.975576	19.768194	0.119502	-3.295255	41.027397	-24.535432	-43.014695	56.615036	6.181416	59.329825	42.798930	60.658177	6.351040	69.636414	48.996789	62.232769	-5.104168	82.575460	56.120789	46.607297	-8.783447	79.929891	48.828402
0.225000	-2.172711	-3.701800	97.553456	0.057722	-0.112402	0.034185	74.944538	19.707187	0.154163	-3.232551	40.863394	-24.691109	-43.007934	56.455515	6.180257	59.335590	42.885819	60.522320	6.346997	69.732358	49.047697	62.041142	-5.108154	82.714044	56.112009	46.315537	-8.768080	79.995927	48.833038
0.235000	-2.172711	-3.701800	97.553456	0.057562	-0.112454	0.034210	74.920946	19.639597	0.172456	-3.171090	40.718445	-24.852398	-43.009801	56.303238	6.187780	59.385802	43.001429	60.409079	6.343345	69.831974	49.137010	61.890102	-5.112586	82.847500	56.140254	46.055838	-8.752599	80.093264	48.846425
0.245000	-2.172711	-3.701800	97.553456	0.057415	-0.112535	0.034255	74.893711	19.562725	0.174179	-3.106237	40.592298	-25.020215	-43.045173	56.146402	6.200778	59.495434	43.120293	60.303705	6.340428	69.958182	49.249336	61.766472	-5.117109	82.999983	56.196273	45.815520	-8.736928	80.229083	48.875004
0.255000	-2.172711	-3.701800	97.553456	0.057281	-0.112639	0.034315	74.860766	19.478567	0.162813	-3.040121	40.482850	-25.187212	-43.123542	55.987740	6.216170	59.654550	43.219200	60.202234	6.338385	70.114548	49.365277	61.660372	-5.121670	83.177718	56.268023	45.592833	-8.721328	80.385460	48.917991
